# xmcd CD database file
# Copyright (C) 1993-1998 Ti Kan
#
# Track frame offsets:
#  150
#  20476
#  37973
#  54858
#  68071
#  85869
#  102867
#  118946
#  138956
#  150324
#  163510
#  178123
#  189441
#  209193
#  214986
#  225607
#  239829
#  252725
#
# Disc length: 3542 seconds
#
# Revision: 1
# Processed by: cddbd v1.4b41PL1 Copyright (c) Steve Scherf et al.
# Submitted via: CDWizzard Release:4.35
#
DISCID=010dd412
DTITLE=Johnie Lewis - Alabama Slide Guitar
DYEAR=1900
DGENRE=
TTITLE0=Hobo Blues
TTITLE1=He Met Me on Thursday Morning
TTITLE2=Uncle Sam Ain't No Woman
TTITLE3=Can't Hardly Get Along
TTITLE4=My Little Gal
TTITLE5=North Carolina Blues
TTITLE6=I'm Gonna Quit My Baby
TTITLE7=Baby, Listen to Me Howl
TTITLE8=You Gonna Miss Me
TTITLE9=Mistake in Life
TTITLE10=I Got to Climb a High Mountain
TTITLE11=My Mother Often Told Me
TTITLE12=Lewis' Little Girl Done Stole a Black Cat Bone
TTITLE13=Jumpin' Jive
TTITLE14=Poor Boy
TTITLE15=Guitar Blues
TTITLE16=Comb My Baby's Hair
TTITLE17=Oh Lord, Tell Me Right From Wrong
EXTD=
EXTT0=
EXTT1=
EXTT2=
EXTT3=
EXTT4=
EXTT5=
EXTT6=
EXTT7=
EXTT8=
EXTT9=
EXTT10=
EXTT11=
EXTT12=
EXTT13=
EXTT14=
EXTT15=
EXTT16=
EXTT17=
PLAYORDER=
